# xmcd CD database file
#
# Track frame offsets:
#	150
#	16549
#	57076
#	75467
#	92319
#	138811
#	149350
#	193202
#	209053
#
# Disc length: 2927 seconds
#
# Revision: 4
# Processed by: cddbd v1.5.2PL0 Copyright (c) Steve Scherf et al.
# Submitted via: CDex 1.99.1
#
DISCID=6f0b6d09
DTITLE=Various Artist - TADD
DYEAR=2003
DGENRE=Blues
TTITLE0=HHH JKLK - HKJU
TTITLE1=HKPOIL - DFFSSD
TTITLE2=The Third - SDFDS
TTITLE3=JKHKL - DFSDF
TTITLE4=SDFSDF - SF
TTITLE5=ewtrwqer - sfda
TTITLE6=SDFSDF - SFDSDF
TTITLE7=SASDA - WERWQR
TTITLE8=QRQWR - FWEWE
EXTD=GOOD YEAR: 2003
EXTT0=
EXTT1=
EXTT2=
EXTT3=
EXTT4=
EXTT5=
EXTT6=
EXTT7=
EXTT8=
PLAYORDER=
